<?xml version="1.0" ?>
<!DOCTYPE svg  PUBLIC '-//W3C//DTD SVG 1.1//EN'  'http://www.w3.org/Graphics/SVG/1.1/DTD/svg11.dtd'>
<!-- Uploaded to: SVG Repo, www.svgrepo.com, Generator: SVG Repo Mixer Tools -->
<svg fill="#000000" width="800px" height="800px" viewBox="0 0 32 32" style="fill-rule:evenodd;clip-rule:evenodd;stroke-linejoin:round;stroke-miterlimit:2;" version="1.1" xml:space="preserve" xmlns="http://www.w3.org/2000/svg" xmlns:serif="http://www.serif.com/" xmlns:xlink="http://www.w3.org/1999/xlink">
<g transform="matrix(1,0,0,1,0,-240)">
<g transform="matrix(1.03846,0,0,1.03846,-350.077,239.885)">
<path d="M341.801,21.963C340.658,20.076 340,17.864 340,15.5C340,8.601 345.601,3 352.5,3C359.399,3 365,8.601 365,15.5C365,22.399 359.399,28 352.5,28C350.676,28 348.943,27.608 347.38,26.905L340,28L341.801,21.963Z" style="fill:rgb(144,224,239);"/>
</g>
<path d="M3.788,262.822L2.042,268.676C1.944,269.003 2.02,269.358 2.244,269.616C2.468,269.875 2.809,270.001 3.147,269.951L10.527,268.856C12.202,269.567 14.045,269.962 15.981,269.962C23.697,269.962 29.962,263.697 29.962,255.981C29.962,248.265 23.697,242 15.981,242C8.265,242 2,248.265 2,255.981C2,258.465 2.649,260.799 3.788,262.822ZM5.828,262.978C5.909,262.708 5.872,262.416 5.725,262.174C4.63,260.366 4,258.246 4,255.981C4,249.368 9.368,244 15.981,244C22.593,244 27.962,249.368 27.962,255.981C27.962,262.593 22.593,267.962 15.981,267.962C14.233,267.962 12.572,267.587 11.074,266.913C10.9,266.834 10.706,266.807 10.517,266.835L4.407,267.742C4.407,267.742 5.828,262.978 5.828,262.978ZM16,260C16.552,260 17,260.448 17,261C17,261.552 16.552,262 16,262C15.448,262 15,261.552 15,261C15,260.448 15.448,260 16,260ZM15,249L15,258C15,258.552 15.448,259 16,259C16.552,259 17,258.552 17,258L17,249C17,248.448 16.552,248 16,248C15.448,248 15,248.448 15,249Z" style="fill:rgb(25,144,167);"/>
</g>
</svg>