<?xml version="1.0" encoding="utf-8"?><!-- Uploaded to: SVG Repo, www.svgrepo.com, Generator: SVG Repo Mixer Tools -->
<svg fill="#000000" width="800px" height="800px" viewBox="-1 0 19 19" xmlns="http://www.w3.org/2000/svg" class="cf-icon-svg"><path d="M16.417 9.579A7.917 7.917 0 1 1 8.5 1.662a7.917 7.917 0 0 1 7.917 7.917zm-6.37 2.817a.317.317 0 0 0-.316-.317H4.15a.318.318 0 0 0-.317.317v.715a.318.318 0 0 0 .317.317h5.58a.317.317 0 0 0 .317-.317zM5.362 8.655l2.362 2.362a.396.396 0 0 0 .56-.56L5.921 8.096a.396.396 0 1 0-.56.56zm8.05 3.235-3.285-3.285.81-.81L8.593 5.45 6.398 7.644l2.345 2.344.823-.823 3.285 3.285a.396.396 0 1 0 .56-.56zM9.056 4.96l2.363 2.362a.396.396 0 1 0 .56-.56L9.615 4.4a.396.396 0 1 0-.56.56z"/></svg>